<?xml version="1.0" encoding="utf-8"?>
<!-- Generator: Adobe Illustrator 16.0.0, SVG Export Plug-In . SVG Version: 6.00 Build 0)  -->
<!DOCTYPE svg PUBLIC "-//W3C//DTD SVG 1.1//EN" "http://www.w3.org/Graphics/SVG/1.1/DTD/svg11.dtd">
<svg version="1.1" id="Layer_1" xmlns="http://www.w3.org/2000/svg" xmlns:xlink="http://www.w3.org/1999/xlink" x="0px" y="0px"
	 width="403.92px" height="403.92px" viewBox="0.04 -94.41 403.92 403.92" enable-background="new 0.04 -94.41 403.92 403.92"
	 xml:space="preserve">
<path d="M0,10.6C0,8.7,1.4,6.7,3.3,6.7h99.8c1.9,0,3.3,1.399,3.3,3V58c0,1.899-1.7,3.6-3.6,3.6H57.9c-1.7,0-3,1.101-3,3V81.2
	c0,1.399,0.8,2.5,2.8,2.5h21.1c1.4,0,3,1.399,3,2.8v50.2c0,1.699-1.4,3-3.3,3H57.6c-1.4,0-2.8,1.899-2.8,3.6v67.3
	c0,2.5-1.4,3.9-3.6,3.9H3c-1.4,0-3-1.701-3-3.602V10.6z"/>
<path d="M109.2,104.3c-1.9,0-1.9-1.4-1.9-14.4c0-21.899,16.9-41.6,45.7-41.6c30.5,0,47.4,19.1,47.4,40.7v75.1
	c0,2.2,0.8,2.2,6.899,2.2c1.102,0,1.9,1.1,1.9,2.2v17.2c0,13.6-11.9,29.699-27.4,29.699c-12.7,0-17.7-4.199-21.899-10.5
	c-1.4-1.898-2.2-2.5-2.8-2.5c-0.3,0-1.4,0.602-3,2.801c-3,4.199-9.7,9.399-19.4,9.399c-11.6,0-28.8-9.7-28.8-37.399v-20.5
	c0-21.9,14.7-33.5,29.9-39.9c20.2-8.6,21.3-11.6,21.3-21.3c0-3.9-1.7-5.8-4.2-5.8c-4.4,0-4.4,1.699-4.4,14.399
	c0,1.4-1.1,2.2-2.5,2.2L109.2,104.3z M157.1,143.4c0-1.1-0.6-1.899-1.7-2.199c-1.7,0-7.2,2.5-7.2,8.6v20.5
	c0,3.3,2.2,4.701,4.4,4.701c2.2,0,4.4-1.4,4.4-4.701v-26.9H157.1L157.1,143.4z"/>
<path d="M261,212.4c0,1.102-0.8,2.2-1.9,2.2H218.4c-1.102,0-2.2-1.399-2.2-2.5V51.6c0-1.899,1.1-3.3,2.8-3.3h39.3
	c1.7,0,2.8,1.4,2.8,2.8v161.3H261z M258.3,36.7c0,1.699-1.1,3-2.8,3h-33.8c-1.4,0-2.8-1.7-2.8-3.301V2c0-1.4,1.398-3,2.8-3h34.1
	c1.101,0,2.5,0.8,2.5,2.2V36.7z"/>
<path d="M274.3,214.6c-1.1,0-2.2-1.399-2.2-2.5V5.9c0-2.5,1.102-3.3,3-3.3H314.2c1.898,0,2.8,0.8,2.8,2.5v207.3
	c0,1.102-1.1,2.2-2.2,2.2H274.3z"/>
<path d="M327.94,214.1c-0.608,0-1.015-0.405-1.015-1.014v-17.099c0-0.607,0.338-0.945,0.812-0.945h26.693
	c0.405,0,0.743-0.338,0.743-0.743v-2.027c0-0.541-0.405-0.945-0.743-0.945h-26.627c-0.54,0-0.945-0.338-0.945-0.812v-17.232
	c0-0.609,0.405-1.015,0.945-1.015l74.477-0.001c0.54,0,1.147,0.338,1.147,0.812v17.369c0,0.541-0.607,0.945-1.147,0.945h-26.627
	c-0.405,0-0.812,0.203-0.812,0.608v2.365c0,0.54,0.406,0.742,0.812,0.742h26.693c0.541,0,1.015,0.405,1.015,0.946v16.692
	c0,0.743-0.743,1.352-1.556,1.352H327.94z"/>
<path d="M362.812,167.604c0,0.743-0.541,0.743-5.272,0.743c-8.041,0-15.272-6.217-15.272-16.829
	c0-11.218,7.028-17.437,15.004-17.437h27.641c0.812,0,0.812-0.338,0.812-2.567c0-0.405,0.405-0.743,0.812-0.743h6.354
	c5.001,0,10.88,4.394,10.88,10.069c0,4.664-1.554,6.556-3.852,8.042c-0.743,0.541-0.946,0.812-0.946,1.014
	c0,0.137,0.203,0.541,1.015,1.15c1.555,1.147,3.445,3.581,3.445,7.163c0,4.257-3.581,10.609-13.786,10.609h-7.568
	c-8.043,0-12.368-5.405-14.665-11.015c-3.177-7.434-4.258-7.841-7.84-7.841c-1.419,0-2.162,0.607-2.162,1.555
	c0,1.623,0.607,1.623,5.271,1.623c0.541,0,0.812,0.405,0.812,0.946L362.812,167.604z M377.207,149.964
	c-0.405,0-0.743,0.203-0.811,0.608c0,0.607,0.945,2.636,3.176,2.636h7.502c1.216,0,1.757-0.812,1.757-1.623
	s-0.541-1.622-1.757-1.622L377.207,149.964L377.207,149.964z"/>
<path d="M343.011,128.271c-0.54,0-0.811-0.202-0.811-0.607v-14.396c0-0.607,3.243-1.352,3.243-1.825
	c0-0.202-0.202-0.404-0.743-0.607c-2.434-1.015-2.567-3.244-2.567-6.42c0-0.338,0.338-0.608,0.743-0.608h14.664
	c0.406,0,0.744,0.203,0.744,0.744c0,5.204,2.771,7.231,11.016,7.231h33.115c0.541,0,0.946,0.405,0.946,0.945v14.868
	c0,0.405-0.338,0.743-0.812,0.743h-59.54L343.011,128.271L343.011,128.271z"/>
<path d="M403.429,80.963c0,0.541-2.566,1.554-2.566,1.96c0,0.203,0.202,0.541,0.743,1.216c1.147,1.419,1.823,3.582,1.823,5.947
	c0,5.068-3.581,10.881-20.273,10.881h-21.288c-15.478,0-19.6-6.353-19.6-11.624c0-2.365,0.743-4.258,2.162-5.677
	c0.541-0.541,0.744-0.812,0.744-1.015c0-0.135-0.203-0.338-0.812-0.338H326.52c-0.539,0-1.014-0.404-1.014-0.945V68.123
	c0-0.541,0.338-0.947,0.812-0.947h76.3c0.54,0,0.946,0.542,0.946,0.947v12.84H403.429z M360.987,82.248
	c-1.555,0-2.636,0.945-2.636,1.959c0,0.945,0.945,1.352,1.959,1.352h25.613c0.608,0,1.96,0,1.96-1.352
	c0-0.405-0.202-0.812-0.54-1.149c-0.406-0.405-1.014-0.81-1.96-0.81H360.987z"/>
<path d="M358.758,63.595c-12.03,0-16.49-9.259-16.49-17.571c0-11.556,8.854-18.179,18.855-18.179h6.217
	c0.541,0,0.946,0.405,0.946,0.946v17.031c0,0.404,0.338,0.607,0.812,0.607h15.949c1.622,0,2.229-0.744,2.229-1.622
	c0-0.743-0.607-1.622-2.162-1.622h-6.149c-0.406,0-0.812-0.338-0.812-0.945l0.743-13.18c0.136-0.607,0.541-1.014,1.148-1.014h6.555
	c13.045,0,16.896,8.988,16.896,18.382c0,10.88-7.771,17.166-19.396,17.166H358.758z M362.204,46.497
	c0.338,0,0.541-0.338,0.541-0.608c0-2.365,0-2.635-0.541-2.635c-6.555,0-7.231,0.135-7.231,1.757c0,0.812,0.608,1.554,2.162,1.554
	h5.069V46.497z"/>
<path d="M343.011,24.465c-0.54,0-0.811-0.203-0.811-0.608V9.461c0-0.608,3.243-1.353,3.243-1.825c0-0.203-0.202-0.405-0.743-0.608
	c-2.434-1.014-2.567-3.243-2.567-6.42c0-0.338,0.338-0.607,0.743-0.607h14.664c0.406,0,0.744,0.203,0.744,0.743
	c0,5.204,2.771,7.23,11.016,7.23h33.115c0.541,0,0.946,0.405,0.946,0.947v14.868c0,0.404-0.338,0.743-0.812,0.743h-59.54
	L343.011,24.465L343.011,24.465z"/>
</svg>
