<?xml version="1.0" encoding="utf-8"?>
<!-- Generator: Adobe Illustrator 16.0.0, SVG Export Plug-In . SVG Version: 6.00 Build 0)  -->
<!DOCTYPE svg PUBLIC "-//W3C//DTD SVG 1.1//EN" "http://www.w3.org/Graphics/SVG/1.1/DTD/svg11.dtd">
<svg version="1.1" id="Layer_1" xmlns="http://www.w3.org/2000/svg" xmlns:xlink="http://www.w3.org/1999/xlink" x="0px" y="0px"
	 width="317px" height="347.2px" viewBox="0 0 317 347.2" enable-background="new 0 0 317 347.2" xml:space="preserve">
<path d="M0,10.6c0-1.9,1.4-3.9,3.3-3.9h99.8c1.9,0,3.3,1.4,3.3,3V58c0,1.9-1.7,3.6-3.6,3.6H57.9c-1.7,0-3,1.1-3,3v16.6
	c0,1.4,0.8,2.5,2.8,2.5h21.1c1.4,0,3,1.4,3,2.8v50.2c0,1.7-1.4,3-3.3,3H57.6c-1.4,0-2.8,1.9-2.8,3.6v67.3c0,2.5-1.4,3.9-3.6,3.9H3
	c-1.4,0-3-1.7-3-3.6V10.6z"/>
<path d="M109.2,104.3c-1.9,0-1.9-1.4-1.9-14.4c0-21.9,16.9-41.6,45.7-41.6c30.5,0,47.4,19.1,47.4,40.7v75.1c0,2.2,0.8,2.2,6.9,2.2
	c1.1,0,1.9,1.1,1.9,2.2v17.2c0,13.6-11.9,29.7-27.4,29.7c-12.7,0-17.7-4.2-21.9-10.5c-1.4-1.9-2.2-2.5-2.8-2.5c-0.3,0-1.4,0.6-3,2.8
	c-3,4.2-9.7,9.4-19.4,9.4c-11.6,0-28.8-9.7-28.8-37.4v-20.5c0-21.9,14.7-33.5,29.9-39.9c20.2-8.6,21.3-11.6,21.3-21.3
	c0-3.9-1.7-5.8-4.2-5.8c-4.4,0-4.4,1.7-4.4,14.4c0,1.4-1.1,2.2-2.5,2.2L109.2,104.3z M157.1,143.4c0-1.1-0.6-1.9-1.7-2.2
	c-1.7,0-7.2,2.5-7.2,8.6v20.5c0,3.3,2.2,4.7,4.4,4.7c2.2,0,4.4-1.4,4.4-4.7V143.4z"/>
<path d="M261,212.4c0,1.1-0.8,2.2-1.9,2.2h-40.7c-1.1,0-2.2-1.4-2.2-2.5V51.6c0-1.9,1.1-3.3,2.8-3.3h39.3c1.7,0,2.8,1.4,2.8,2.8
	V212.4z M258.3,36.7c0,1.7-1.1,3-2.8,3h-33.8c-1.4,0-2.8-1.7-2.8-3.3V2c0-1.4,1.4-3,2.8-3h34.1c1.1,0,2.5,0.8,2.5,2.2V36.7z"/>
<path d="M274.3,214.6c-1.1,0-2.2-1.4-2.2-2.5V5.9c0-2.5,1.1-3.3,3-3.3h39.1c1.9,0,2.8,0.8,2.8,2.5v207.3c0,1.1-1.1,2.2-2.2,2.2
	H274.3z"/>
<path d="M0,235.5c0-0.9,0.6-1.5,1.5-1.5h25.3c0.9,0,1.4,0.5,1.4,1.2v39.5c0,0.6,0.5,1.1,1.1,1.1h3c0.8,0,1.4-0.6,1.4-1.1v-39.4
	c0-0.8,0.5-1.4,1.2-1.4h25.5c0.9,0,1.5,0.6,1.5,1.4v110.2c0,0.8-0.5,1.7-1.2,1.7H35c-0.8,0-1.4-0.9-1.4-1.7v-39.4
	c0-0.6-0.3-1.2-0.9-1.2h-3.5c-0.8,0-1.1,0.6-1.1,1.2v39.5c0,0.8-0.6,1.5-1.4,1.5H2c-1.1,0-2-1.1-2-2.3V235.5z"/>
<path d="M68.8,287.1c-1.1,0-1.1-0.8-1.1-7.8c0-11.9,9.2-22.6,24.9-22.6c16.6,0,25.8,10.4,25.8,22.2v40.9c0,1.2,0.5,1.2,3.8,1.2
	c0.6,0,1.1,0.6,1.1,1.2v9.4c0,7.4-6.5,16.1-14.9,16.1c-6.9,0-9.7-2.3-11.9-5.7c-0.8-1.1-1.2-1.4-1.5-1.4c-0.2,0-0.8,0.3-1.7,1.5
	c-1.7,2.3-5.3,5.1-10.6,5.1c-6.3,0-15.7-5.3-15.7-20.4v-11.2c0-11.9,8-18.3,16.3-21.7c11-4.7,11.6-6.3,11.6-11.6
	c0-2.1-0.9-3.2-2.3-3.2c-2.4,0-2.4,0.9-2.4,7.8c0,0.8-0.6,1.2-1.4,1.2L68.8,287.1z M94.9,308.4c0-0.6-0.3-1.1-0.9-1.2
	c-0.9,0-3.9,1.4-3.9,4.7V323c0,1.8,1.2,2.6,2.4,2.6c1.2,0,2.4-0.8,2.4-2.6V308.4z"/>
<path d="M127,257.8c0-0.8,0.3-1.2,0.9-1.2h21.3c0.9,0,2,4.8,2.7,4.8c0.3,0,0.6-0.3,0.9-1.1c1.5-3.6,4.8-3.8,9.5-3.8
	c0.5,0,0.9,0.5,0.9,1.1v21.7c0,0.6-0.3,1.1-1.1,1.1c-7.7,0-10.7,4.1-10.7,16.3v49c0,0.8-0.6,1.4-1.4,1.4h-22c-0.6,0-1.1-0.5-1.1-1.2
	V257.8z"/>
<path d="M197,347.2c-0.8,0-2.3-3.8-2.9-3.8c-0.3,0-0.8,0.3-1.8,1.1c-2.1,1.7-5.3,2.7-8.8,2.7c-7.5,0-16.1-5.3-16.1-30v-31.5
	c0-22.9,9.4-29,17.2-29c3.5,0,6.3,1.1,8.4,3.2c0.8,0.8,1.2,1.1,1.5,1.1c0.2,0,0.5-0.3,0.5-1.2v-26.4c0-0.8,0.6-1.5,1.4-1.5h19.6
	c0.8,0,1.4,0.5,1.4,1.2v112.9c0,0.8-0.8,1.4-1.4,1.4H197z M195.1,284.4c0-2.3-1.4-3.9-2.9-3.9c-1.4,0-2,1.4-2,2.9v37.9
	c0,0.9,0,2.9,2,2.9c0.6,0,1.2-0.3,1.7-0.8c0.6-0.6,1.2-1.5,1.2-2.9V284.4z"/>
<path d="M222.7,281.1c0-17.8,13.7-24.4,26-24.4c17.1,0,26.9,13.1,26.9,27.9v9.2c0,0.8-0.6,1.4-1.4,1.4h-25.2c-0.6,0-0.9,0.5-0.9,1.2
	V320c0,2.4,1.1,3.3,2.4,3.3c1.1,0,2.4-0.9,2.4-3.2V311c0-0.6,0.5-1.2,1.4-1.2l19.5,1.1c0.9,0.2,1.5,0.8,1.5,1.7v9.7
	c0,19.3-13.3,25-27.2,25c-16.1,0-25.4-11.5-25.4-28.7V281.1z M248,286.2c0,0.5,0.5,0.8,0.9,0.8c3.5,0,3.9,0,3.9-0.8
	c0-9.7-0.2-10.7-2.6-10.7c-1.2,0-2.3,0.9-2.3,3.2V286.2z"/>
<path d="M280.6,257.8c0-0.8,0.3-1.2,0.9-1.2h21.3c0.9,0,2,4.8,2.7,4.8c0.3,0,0.6-0.3,0.9-1.1c1.5-3.6,4.8-3.8,9.5-3.8
	c0.5,0,0.9,0.5,0.9,1.1v21.7c0,0.6-0.3,1.1-1.1,1.1c-7.7,0-10.7,4.1-10.7,16.3v49c0,0.8-0.6,1.4-1.4,1.4h-22c-0.6,0-1.1-0.5-1.1-1.2
	V257.8z"/>
</svg>
